<?xml version="1.0" ?><svg style="enable-background:new 0 0 64 64;" version="1.1" viewBox="0 0 64 64" xml:space="preserve" xmlns="http://www.w3.org/2000/svg" xmlns:xlink="http://www.w3.org/1999/xlink"><style type="text/css">
	.st0{fill:none;stroke:#fff;stroke-width:2;stroke-linecap:round;stroke-linejoin:round;stroke-miterlimit:10;}
	.st1{fill:none;stroke:#fff;stroke-width:2;stroke-miterlimit:10;}
</style><g id="Layer_1"/><g id="Layer_2"><path class="st0" d="M9.9,45.6c-1.5,2.4-1.2,5.6,0.9,7.6c2.4,2.4,6.3,2.4,8.7,0L32,40.7l12.5,12.5c2.4,2.4,6.3,2.4,8.7,0   c2.4-2.4,2.4-6.3,0-8.7L40.7,32l12.5-12.5c2.4-2.4,2.4-6.3,0-8.7c-2.4-2.4-6.3-2.4-8.7,0L32,23.3L19.5,10.8c-2.4-2.4-6.3-2.4-8.7,0   c-2.4,2.4-2.4,6.3,0,8.7l10.1,10.1"/><line class="st0" x1="18.1" x2="13.2" y1="37.2" y2="42.1"/><line class="st0" x1="45.2" x2="39.4" y1="18.8" y2="24.6"/><line class="st0" x1="20.4" x2="18.8" y1="43.6" y2="45.2"/><line class="st0" x1="22.6" x2="19.1" y1="22.6" y2="19.2"/><line class="st0" x1="27" x2="25.8" y1="27" y2="25.9"/></g></svg>